<svg width="70" height="70" viewBox="0 0 70 70" fill="none" xmlns="http://www.w3.org/2000/svg">
<g filter="url(#filter0_d_1_1157)">
<circle cx="34.7999" cy="21.7999" r="16.7999" fill="#F53838"/>
</g>
<path d="M36.0657 5C26.7581 5 19.213 12.5215 19.213 21.8C19.213 31.0786 26.7581 38.6001 36.0657 38.6001C45.3733 38.6001 52.9183 31.0786 52.9183 21.8C52.9183 12.5215 45.3733 5 36.0657 5ZM40.0576 16.6095H37.5245C37.2243 16.6095 36.8908 17.0033 36.8908 17.5265V19.35H40.0594L39.5802 21.9506H36.8908V29.7573H33.9012V21.9506H31.1889V19.35H33.9012V17.8205C33.9012 15.626 35.4284 13.8428 37.5245 13.8428H40.0576V16.6095Z" fill="white"/>
<defs>
<filter id="filter0_d_1_1157" x="0" y="0" width="69.5999" height="69.5999" filterUnits="userSpaceOnUse" color-interpolation-filters="sRGB">
<feFlood flood-opacity="0" result="BackgroundImageFix"/>
<feColorMatrix in="SourceAlpha" type="matrix" values="0 0 0 0 0 0 0 0 0 0 0 0 0 0 0 0 0 0 127 0" result="hardAlpha"/>
<feOffset dy="13"/>
<feGaussianBlur stdDeviation="9"/>
<feColorMatrix type="matrix" values="0 0 0 0 0.0658854 0 0 0 0 0.0730469 0 0 0 0 0.1375 0 0 0 0.08 0"/>
<feBlend mode="normal" in2="BackgroundImageFix" result="effect1_dropShadow_1_1157"/>
<feBlend mode="normal" in="SourceGraphic" in2="effect1_dropShadow_1_1157" result="shape"/>
</filter>
</defs>
</svg>
